# xmcd
#
# Track frame offsets:
#	150
#	10928
#	22726
#	33774
#	44102
#	56635
#	68335
#	78333
#	91931
#	104089
#	117559
#	127827
#
# Disc length: 1882 seconds
#
# Revision: 0
# Processed by: cddbd v1.5.2PL0 Copyright (c) Steve Scherf et al.
# Submitted via: audiograbber 1.83.01
#
DISCID=9107580c
DTITLE=Ray Price - Burning Memories
DYEAR=1965
DGENRE=Country
TTITLE0=Burning Memories
TTITLE1=Here Comes My Baby Back Again
TTITLE2=Make The World Go Away
TTITLE3=Are You Sure
TTITLE4=Soft Rain
TTITLE5=Release Me
TTITLE6=Together Again
TTITLE7=You Took Her Off My Hands(Now Please Take Her Off My Mind)
TTITLE8=A Thing Called Sadness
TTITLE9=Walk Me To The Door
TTITLE10=That's All That Matters
TTITLE11=Let Me Talk To You
EXTD=
EXTT0=
EXTT1=
EXTT2=
EXTT3=
EXTT4=
EXTT5=
EXTT6=
EXTT7=
EXTT8=
EXTT9=
EXTT10=
EXTT11=
PLAYORDER=
